<?xml version="1.0" encoding="utf-8"?>
<!-- Generator: Adobe Illustrator 25.3.1, SVG Export Plug-In . SVG Version: 6.00 Build 0)  -->
<svg version="1.1" id="Layer_1" xmlns="http://www.w3.org/2000/svg" xmlns:xlink="http://www.w3.org/1999/xlink" x="0px" y="0px"
	 viewBox="0 0 512 512" style="enable-background:new 0 0 512 512;" xml:space="preserve">
<style type="text/css">
	.st0{fill:#969696;}
</style>
<g id="surface1">
	<path class="st0" d="M371.9,221.6v-96.9c0-2.8-1.3-5.3-3.1-7.4L260.2,3.3c-2-2.1-4.9-3.3-7.8-3.3H80.2C48.4,0,23,25.9,23,57.7
		v325.7c0,31.8,25.4,57.3,57.2,57.3h136c25.7,42.7,72.5,71.3,125.7,71.3c80.9,0,146.9-65.7,146.9-146.7
		C488.9,294.5,438.1,235.4,371.9,221.6z M263.1,37.5l72.9,76.7h-47.3c-14.1,0-25.6-11.6-25.6-25.7V37.5z M80.2,419.4
		c-20,0-35.9-16-35.9-36V57.7c0-20.1,15.9-36.4,35.9-36.4h161.6v67.1c0,25.9,21,47.1,47,47.1h61.9v83.3c-3.2-0.1-5.8-0.4-8.5-0.4
		c-37.2,0-71.5,14.3-97.3,36.7H109.2c-5.9,0-10.7,4.8-10.7,10.7c0,5.9,4.8,10.7,10.7,10.7h115.7c-7.6,10.7-13.9,21.3-18.8,33.1
		h-96.9c-5.9,0-10.7,4.8-10.7,10.7c0,5.9,4.8,10.7,10.7,10.7h90c-2.7,10.7-4.1,22.5-4.1,34.4c0,19.2,3.7,38.2,10.5,54.2H80.2V419.4z
		 M342,490.8c-69.1,0-125.4-56.2-125.4-125.4S272.7,240,342,240s125.4,56.2,125.4,125.4S411.1,490.8,342,490.8z"/>
	<path class="st0" d="M109.2,223h108.1c5.9,0,10.7-4.8,10.7-10.7s-4.8-10.7-10.7-10.7H109.2c-5.9,0-10.7,4.8-10.7,10.7
		C98.6,218.2,103.4,223,109.2,223z"/>
	<path class="st0" d="M396.6,363.1l-43.9,47.3V293.9c0-5.9-4.8-10.7-10.7-10.7c-5.9,0-10.7,4.8-10.7,10.7v116.5l-44.2-47.3
		c-4.1-4.3-10.9-4.6-15.2-0.5s-4.6,10.8-0.5,15l62.4,67.1c2,2.1,4.8,3.4,7.8,3.4s5.8-1.3,7.8-3.4l62.5-67.1c4.1-4.3,3.8-11.1-0.4-15
		C407.3,358.6,400.7,358.9,396.6,363.1z"/>
</g>
</svg>
