<!-- Generator: Adobe Illustrator 25.2.1, SVG Export Plug-In  -->
<svg version="1.1" xmlns="http://www.w3.org/2000/svg" xmlns:xlink="http://www.w3.org/1999/xlink" x="0px" y="0px" width="60.47px"
	 height="52.75px" viewBox="0 0 60.47 52.75" style="overflow:visible;enable-background:new 0 0 60.47 52.75;"
	 xml:space="preserve">
<style type="text/css">
	.st0{fill-rule:evenodd;clip-rule:evenodd;fill:#DA1F33;}
	.st1{fill-rule:evenodd;clip-rule:evenodd;fill:#F47920;}
</style>
<defs>
</defs>
<path class="st0" d="M30.25,14.85c6.33,0.01,11.46,5.16,11.45,11.49S36.54,37.8,30.21,37.79c-6.33-0.01-11.46-5.16-11.45-11.49
	C18.78,19.97,23.92,14.84,30.25,14.85z"/>
<path class="st1" d="M30.23,52.75c14.55,0.05,26.38-11.69,26.44-26.24c0.01-4.01-0.89-7.98-2.64-11.59H37.37
	c6.36,3.87,8.39,12.16,4.52,18.52c-2.47,4.07-6.9,6.53-11.66,6.48H0v12.83H30.23z M30.25,0L30.25,0
	C15.69,0.02,3.89,11.79,3.84,26.35c-0.01,3.98,0.89,7.9,2.63,11.48h16.64c-6.36-3.87-8.39-12.16-4.52-18.52
	c2.47-4.07,6.9-6.53,11.66-6.48h30.22V0H30.25z"/>
</svg>
